<svg xmlns="http://www.w3.org/2000/svg" version="1.1" x="0px" y="0px" viewBox="0 0 464 500"
		 style="enable-background:new 0 0 464 400;" xml:space="preserve">
	<g>
		<polygon points="224,32 240,32 240,16 256,16 256,0 208,0 208,16 224,16  "/>
		<polygon points="160,32 176,32 176,16 192,16 192,0 144,0 144,16 160,16  "/>
		<polygon points="288,32 304,32 304,16 320,16 320,0 272,0 272,16 288,16  "/>
		<polygon points="376,179.313 347.313,208 404.687,208  "/>
		<polygon points="356.687,176 299.313,176 328,204.687  "/>
		<polygon points="432,208 432,176 395.313,176 427.313,208  "/>
		<polygon points="280,179.313 251.313,208 308.687,208  "/>
		<polygon points="280,156.687 308.687,128 251.313,128  "/>
		<polygon points="260.687,176 203.313,176 232,204.687  "/>
		<polygon points="299.313,160 356.687,160 328,131.313  "/>
		<polygon points="347.313,128 376,156.687 404.687,128  "/>
		<polygon points="203.313,160 260.687,160 232,131.313  "/>
		<path
			d="M415.03,237.657L428.687,224H35.313l13.657,13.657c1.511,1.511,3.521,2.343,5.657,2.343h354.745   C411.509,240,413.519,239.168,415.03,237.657z"/>
		<polygon points="136,204.687 164.687,176 107.313,176  "/>
		<path
			d="M392,304H291.816l24.183,60.459c31.151-2.735,59.695-7.006,83.888-12.651C450.497,339.999,464,326.257,464,320   c0-5.537-10.965-17.45-50.959-28.469C408.955,298.956,401.056,304,392,304z"/>
		<rect x="96" y="256" width="16" height="32"/>
		<rect x="128" y="256" width="16" height="32"/>
		<path d="M72,288h8v-32H64v24C64,284.411,67.589,288,72,288z"/>
		<polygon points="184,156.687 212.687,128 155.313,128  "/>
		<polygon points="184,179.313 155.313,208 212.687,208  "/>
		<polygon points="395.313,160 432,160 432,128 427.313,128  "/>
		<path
			d="M358.094,51.563c-1.487-2.23-3.976-3.563-6.657-3.563H112.563c-2.681,0-5.169,1.332-6.657,3.563L86.948,80h290.104   L358.094,51.563z"/>
		<path
			d="M415.03,98.343c-1.511-1.511-3.521-2.343-5.657-2.343H54.627c-2.137,0-4.146,0.832-5.657,2.343L35.313,112h393.373   L415.03,98.343z"/>
		<polygon points="36.687,128 32,128 32,160 68.687,160  "/>
		<path
			d="M232,368c23.123,0,45.726-0.766,67.288-2.239L274.584,304h-85.168l-24.704,61.761C186.274,367.234,208.877,368,232,368z"/>
		<path
			d="M64.112,351.807c24.193,5.645,52.738,9.916,83.888,12.651L172.184,304H72c-9.056,0-16.955-5.044-21.041-12.469   C10.965,302.55,0,314.463,0,320C0,326.257,13.503,339.999,64.112,351.807z"/>
		<path
			d="M232,384c-64.7,0-125.615-5.899-171.523-16.611C32.87,360.947,12.685,353.288,0,344.49V352   c0,6.257,13.503,19.999,64.112,31.807C108.864,394.249,168.488,400,232,400s123.136-5.751,167.888-16.193   C450.497,371.999,464,358.257,464,352v-7.51c-12.685,8.799-32.87,16.458-60.477,22.899C357.615,378.101,296.7,384,232,384z"/>
		<polygon points="68.687,176 32,176 32,208 36.687,208  "/>
		<rect x="160" y="256" width="16" height="32"/>
		<rect x="352" y="256" width="16" height="32"/>
		<rect x="192" y="256" width="32" height="32"/>
		<polygon points="116.687,208 88,179.313 59.313,208  "/>
		<polygon points="88,156.687 116.687,128 59.313,128  "/>
		<polygon points="107.313,160 164.687,160 136,131.313  "/>
		<path d="M392,288c4.411,0,8-3.589,8-8v-24h-16v32H392z"/>
		<rect x="240" y="256" width="32" height="32"/>
		<rect x="320" y="256" width="16" height="32"/>
		<rect x="288" y="256" width="16" height="32"/>
	</g>
</svg>