<svg xmlns="http://www.w3.org/2000/svg" version="1.1" viewBox="-5.0 -10.0 110.0 135.0" style="fill:#99a1af">
	<path
		d="m62.258 40.461-12.398 42.699h-0.035156l-12.395-42.699zm4.0312-3.8711h23.715c-0.12109-0.25781-0.26953-0.50781-0.44922-0.74609l-13.031-17.312c-0.82422-1.0898-2.0312-1.6914-3.4023-1.6914h-12.586zm-23.105-19.75-5.7539 19.75h24.824l-5.7539-19.75zm-9.7852 19.75 5.7539-19.75h-12.27c-1.3711 0-2.5781 0.60156-3.4062 1.6953l-13.031 17.312c-0.17578 0.23828-0.32422 0.48438-0.44531 0.74219zm0 3.8711h-23.27c0.15234 0.27344 0.33203 0.53125 0.54688 0.77344l34.008 38.105-11.289-38.883zm32.895 0-11.441 39.41 34.484-38.637c0.21484-0.24219 0.39453-0.50391 0.54687-0.77344z"/>
</svg>