<svg xmlns="http://www.w3.org/2000/svg" version="1.1" viewBox="-5.0 -10.0 110.0 135.0" style="fill:#00BD84;">
	<path
		d="m51.934 10.219c1.2656 0.27344 2.4922 0.8125 3.5898 1.625l22.375 16.578c0.65625 0.48438 1.2266 1.0352 1.7188 1.6328l-12.074 6.0703-15.609-11.566v-14.344zm13.48 29.148-15.414-11.422-15.414 11.422v21.27l15.414 11.422 15.414-11.422zm3.8711 21.051 12.074 6.0703c0.19141-0.75 0.28906-1.5391 0.28906-2.3516v-28.266c0-0.81641-0.10156-1.6016-0.28906-2.3516l-12.074 6.0703zm-38.57-20.832-12.074-6.0703c-0.19141 0.75391-0.29297 1.5391-0.29297 2.3555v28.266c0 0.81641 0.10156 1.6016 0.29297 2.3555l12.074-6.0703zm36.832 24.289-15.609 11.566v14.344c1.2656-0.27344 2.4922-0.8125 3.5938-1.6289l22.371-16.578c0.65625-0.48438 1.2266-1.0352 1.7188-1.6367l-12.074-6.0703zm-35.09-27.746 15.609-11.566v-14.344c-1.2656 0.27344-2.4922 0.8125-3.5898 1.6289l-22.371 16.578c-0.65625 0.48438-1.2266 1.0312-1.7188 1.6328zm15.609 39.312-15.609-11.566-12.07 6.0703c0.49219 0.60156 1.0625 1.1484 1.7188 1.6328l22.371 16.578c1.0977 0.8125 2.3203 1.3555 3.5898 1.625v-14.344z"/>
</svg>