<svg xmlns="http://www.w3.org/2000/svg" version="1.1" viewBox="-5.0 -10.0 110.0 135.0" style="fill:#FFEFCC;">
	<path
		d="m23.098 20.395c6.668-6.0508 15.383-9.8867 24.969-10.344v9.0156c-7.1016 0.4375-13.562 3.2734-18.586 7.7031zm26.902 2.4805c14.977 0 27.16 12.168 27.16 27.125s-12.184 27.125-27.16 27.125-27.16-12.168-27.16-27.125 12.184-27.125 27.16-27.125zm0 5.9375c-0.71875 0-1.3789 0.39844-1.7109 1.0312l-5.4062 10.246-11.426 1.9688c-0.70703 0.12109-1.2891 0.625-1.5117 1.3086-0.22266 0.68359-0.046874 1.4336 0.45313 1.9492l8.082 8.3008-1.6523 11.461c-0.10156 0.71094 0.19531 1.4219 0.77734 1.8438s1.3477 0.48828 1.9922 0.17188l10.402-5.1172 10.402 5.1172c0.26953 0.13281 0.5625 0.19922 0.85547 0.19922 0.40234 0 0.80078-0.125 1.1367-0.37109 0.58203-0.42188 0.87891-1.1328 0.77734-1.8438l-1.6523-11.461 8.082-8.3008c0.5-0.51562 0.67578-1.2656 0.45313-1.9492-0.22266-0.68359-0.80469-1.1875-1.5117-1.3086l-11.426-1.9688-5.4062-10.246c-0.33594-0.63672-0.99219-1.0312-1.7109-1.0312zm-4.1406 13.926c-0.28125 0.53125-0.78906 0.90234-1.3828 1.0039l-8.7422 1.5078 6.1836 6.3516c0.41797 0.42969 0.61328 1.0312 0.52734 1.6289l-1.2656 8.7695 7.9648-3.9141c0.26953-0.13281 0.5625-0.19922 0.85547-0.19922s0.58594 0.066406 0.85547 0.19922l7.9648 3.9141-1.2656-8.7695c-0.085938-0.59375 0.10937-1.1953 0.52734-1.6289l6.1836-6.3516-8.7422-1.5078c-0.59375-0.10156-1.1016-0.47266-1.3828-1.0039l-4.1406-7.8438zm6.0742-32.688v9.0156c7.1016 0.4375 13.562 3.2734 18.586 7.7031l6.3828-6.375c-6.668-6.0508-15.383-9.8906-24.969-10.348zm-32.902 38.012c0.44141-7.0938 3.2773-13.543 7.7109-18.559l-6.3828-6.375c-6.0586 6.6602-9.9023 15.359-10.359 24.934zm7.7109 22.43c-4.4336-5.0156-7.2695-11.469-7.7109-18.559h-9.0312c0.46094 9.5742 4.3008 18.277 10.359 24.938l6.3867-6.3789zm46.52-40.988c4.4336 5.0156 7.2695 11.469 7.7109 18.559h9.0273c-0.46094-9.5703-4.3008-18.273-10.359-24.934l-6.3828 6.375zm7.7109 22.43c-0.44141 7.0938-3.2773 13.543-7.7109 18.559l6.3828 6.375c6.0547-6.6602 9.8984-15.359 10.355-24.934zm-32.906 28.996c-7.1016-0.4375-13.562-3.2734-18.586-7.7031l-6.3867 6.3789c6.668 6.0508 15.383 9.8906 24.969 10.348v-9.0195zm22.457-7.7031c-5.0195 4.4297-11.484 7.2656-18.586 7.7031v9.0195c9.5859-0.45703 18.301-4.2969 24.969-10.352l-6.3828-6.375z"/>
</svg>