<svg xmlns="http://www.w3.org/2000/svg" version="1.1" viewBox="-5.0 -10.0 110.0 135.0" style="fill: #808080">
	<path
		d="m23.082 20.344 24.98-10.344v16.07l-13.617 5.6406-11.363-11.363zm28.852-10.344v16.07l13.617 5.6406 11.363-11.363-24.98-10.344zm18.605 39.996-6.0156-14.523-14.523-6.0156-14.523 6.0156-6.0156 14.523 6.0156 14.523 14.523 6.0156 14.523-6.0156zm-44.469-1.9336 5.6406-13.617-11.363-11.363-10.344 24.98h16.07zm39.48 20.223-13.617 5.6406v16.074l24.98-10.348-11.363-11.363zm8.375-16.352-5.6406 13.617 11.363 11.363 10.348-24.98h-16.074zm-42.215 13.617-5.6406-13.617h-16.07l10.344 24.98 11.363-11.363zm36.578-31.102 5.6406 13.617h16.074l-10.348-24.98-11.363 11.363zm-20.223 39.48-13.617-5.6406-11.363 11.363 24.98 10.348v-16.074z"/>
</svg>