<svg xmlns="http://www.w3.org/2000/svg" version="1.1" viewBox="-5.0 -10.0 110.0 135.0" style="fill:#FFE0E0;">
	<path
		d="m61.848 51.93-11.848 38.07-11.848-38.07zm4.0469 0-11.105 35.691 25.098-34.117c0.36328-0.48828 0.63672-1.0195 0.82812-1.5742zm0-3.8633h14.82c-0.19141-0.55078-0.46484-1.082-0.82422-1.5703l-25.102-34.125 11.109 35.695zm-15.895-38.066-11.852 38.066h23.695l-11.848-38.066zm-15.898 41.93h-14.82c0.19141 0.55078 0.46484 1.082 0.82422 1.5703l25.102 34.117-11.109-35.688zm0-3.8633 11.109-35.691-25.105 34.121c-0.35938 0.48828-0.63281 1.0195-0.82422 1.5703z"/>
</svg>