<svg xmlns="http://www.w3.org/2000/svg" version="1.1" viewBox="-5.0 -10.0 110.0 135.0" style="fill:#D6ECFF;">
	<path
		d="m62.457 49.996-12.473 16.621-12.469-16.621 12.469-16.617zm-28.328-1.9336 13.934-18.57v-19.492c-1.125 0.37891-2.1094 1.0938-2.8594 2.1094l-25.281 34.367c-0.36328 0.49609-0.63672 1.0312-0.83203 1.5859zm17.805-18.535 13.91 18.535h15.066c-0.19141-0.55469-0.46875-1.0898-0.83203-1.5859l-25.285-34.367c-0.74609-1.0156-1.7305-1.7305-2.8594-2.1094v19.531zm-3.8711 40.977-13.934-18.574h-15.039c0.19141 0.55469 0.46875 1.0898 0.83203 1.5859l25.285 34.371c0.75 1.0117 1.7305 1.7305 2.8555 2.1094zm17.781-18.574-13.91 18.539v19.527c1.1289-0.37891 2.1094-1.0977 2.8594-2.1133l25.285-34.367c0.36328-0.49609 0.64062-1.0312 0.83594-1.5859z"/>
</svg>