<?xml version="1.0" encoding="UTF-8"?>
<svg id="a" xmlns="http://www.w3.org/2000/svg" viewBox="0 0 512 512">
	<path d="M205.08,203.02l21.79-29.71-21.14-31.7-21.79,31.7,21.14,29.71Z" style="fill:#010101;"/>
	<path d="M176.02,148.87l16.51-23.11-16.51-24.42-16.51,24.42,16.51,23.11Z" style="fill:#010101;"/>
	<path d="M183.94,246.61l21.14,29.71,21.79-29.71-21.14-31.7-21.79,31.7Z" style="fill:#010101;"/>
	<path
		d="M510.13,135.01c-1.97-3.31-5.28-5.28-8.59-6.6-2.63-.66-50.19-13.86-96.4-27.08-13.2-3.97-26.42-7.26-38.96-10.57-1.32-3.31-2.63-5.94-3.97-7.26-2.63-2.63-6.6-3.97-9.91-3.97h-25.76c-10.57-2.63-17.17-4.63-18.48-5.28-5.94-1.32-12.54,0-17.17,5.28h-139.99c-7.92,0-17.17,6.6-17.17,17.17v1.32c-7.92,1.97-15.19,3.97-23.11,5.94-48.87,11.88-95.09,23.77-97.72,24.42-7.92,1.97-14.54,9.91-12.54,21.14,1.97,11.23,65.38,264.79,68.01,275.36.66,5.94,6.6,14.54,17.82,13.2,5.94-.66,85.18-20.48,161.13-39.62h34.99c29.05,7.92,68.67,19.14,119.51,33.02l13.86,3.97c11.23,3.31,17.82-6.6,19.82-11.88l75.95-272.72c1.34-8.57,0-13.2-1.32-15.83h0ZM417.7,425.56l-13.86-3.97c-34.33-9.25-63.38-17.17-87.83-24.42-5.94-1.32-11.23-3.31-16.51-4.63s-10.57-3.31-15.85-4.63h-.66c-2.63-.66-5.28-1.32-7.92-1.97-3.31-.66-5.94-1.97-9.25-2.63-26.42-7.26-41.59-11.88-43.59-12.54-5.28-1.97-3.97-6.6-3.31-8.59.66-1.32,16.51-60.1,34.33-123.48.66-2.63,1.32-4.63,1.97-7.26,0-.66.66-1.32.66-1.97.66-3.31,1.97-5.94,2.63-9.25,1.97-6.6,3.31-12.54,5.28-18.48,15.85-56.78,30.37-108.29,31.7-112.91v-.66c.66-2.63,2.63-3.97,3.97-4.63,2.63-1.32,5.94-.66,5.94-.66,0,0,1.32,0,2.63.66,3.31.66,9.25,2.63,16.51,4.63,8.59,2.63,20.48,5.94,33.02,9.25,1.32.66,3.31.66,4.63,1.32s3.31.66,4.63,1.32c11.23,3.31,23.11,6.6,34.99,9.91,48.21,13.86,93.77,26.42,96.4,27.08.66,0,1.97.66,2.63,1.97.66.66.66,1.97.66,3.31s0,2.63-.66,4.63l-75.24,273.34s-2.63,6.6-7.92,5.28h0ZM76.96,422.91c-.66-3.29-66.04-264.79-68.01-275.36-1.32-7.92,5.28-9.91,5.94-9.91,2.63-.66,50.84-12.54,97.72-24.42,7.26-1.97,13.86-3.31,21.14-5.28v50.19c-1.97-1.32-4.63-1.97-7.26-1.97-7.92,0-14.54,6.6-14.54,14.54,0,5.28,2.63,9.25,6.6,11.88-7.92,0-14.54,6.6-14.54,14.54s6.6,14.54,14.54,14.54c5.94,0,11.23-3.97,13.2-9.25.66,3.31,1.97,6.6,1.97,9.25v9.25c.02,2.61-.64,3.27-.64,3.27h.66v42.27c-3.97,2.63-6.6,6.6-6.6,11.88s2.63,9.25,6.6,11.88c0,48.21.66,87.83.66,91.78-.66,5.94,2.63,15.85,13.86,17.17,2.63,0,22.45.66,59.44,0-77.92,19.82-119.51,29.71-123.48,30.37-5.28,0-6.6-4.63-7.26-6.6h0ZM143,97.37v-1.97c1.32-5.94,7.26-6.6,7.92-6.6h134.05c-3.31,11.23-15.19,54.15-29.05,103.01l-7.94-11.88v.66l-3.31,5.28-3.29,5.28-14.54,21.14,17.82,24.42c-7.92,28.39-15.85,56.13-21.79,78.58l-17.17-25.76-21.79,31.7,21.79,29.71,11.88-16.51c-3.97,14.54-6.6,24.42-7.26,25.76-1.97,5.28-1.97,15.85,8.59,19.82,1.97.66,11.23,3.31,28.39,8.59.66,0,1.32,0,1.32.66h-99.72c-5.28-.66-5.94-5.28-5.28-7.26,0-1.32,0-40.93-.66-89.8v-27.73l.02-.68V97.37h0ZM125.84,184.54q.66,0,0,0Z"
		style="fill:#010101;"/>
	<path
		d="M393.91,245.27c-16.51-29.05-19.14-38.3-21.14-54.81-1.97,2.63-3.31,4.63-5.28,6.6-1.32,1.97-3.31,3.31-4.63,5.28-1.32,1.32-2.63,2.63-4.63,3.97-6.6,5.94-15.85,11.88-31.7,20.48-7.26,3.97-12.54,9.25-15.19,14.54-3.31,5.94-3.97,11.88-3.31,17.17,1.32,5.28,3.97,10.57,8.59,13.2,13.2,9.25,23.77,5.28,29.71,1.32-1.32,3.97-2.63,7.92-3.97,11.23-5.94,11.88-8.59,13.2-8.59,13.2l18.48,4.63s-1.32-3.31-.66-14.54c0-4.63,1.32-9.25,1.97-13.2,1.32,2.63,3.31,5.28,5.94,7.92,1.32,1.32,2.63,2.63,4.63,3.31,1.32.66,3.31,1.32,4.63,1.97,3.31.66,6.6,1.32,11.23,1.32,13.92-.64,27.14-19.12,13.92-43.56h0Z"
		style="fill:#010101;"/>
	<path
		d="M329.21,126.42c-7.26-13.2-8.59-17.17-9.91-25.08-.66,1.32-1.32,1.97-2.63,3.31-.66.66-1.32,1.32-1.97,2.63-.66.66-1.32,1.32-1.97,1.97-3.31,2.63-7.26,5.28-14.54,9.25-3.31,1.97-5.94,3.97-6.6,6.6-1.32,2.63-1.97,5.28-1.32,7.92.66,2.63,1.97,4.63,3.97,5.94,5.94,3.97,10.57,2.63,13.86.66-.66,1.97-1.32,3.31-1.97,5.28-2.63,5.28-3.97,5.94-3.97,5.94l8.59,1.97s-.66-1.32,0-6.6c0-1.97.66-3.97.66-5.94.66,1.32,1.32,2.63,2.63,3.31.66.66,1.32,1.32,1.97,1.32s1.32.66,1.97.66c1.32,0,3.31.66,5.28.66,5.94-.64,11.88-8.57,5.94-19.8h0Z"
		style="fill:#010101;"/>
	<path
		d="M384.68,379.98c7.26,13.2,8.59,17.17,9.91,25.08.66-1.32,1.32-1.97,2.63-3.31.66-.66,1.32-1.32,1.97-2.63l1.97-1.97c3.31-2.63,7.26-5.28,14.54-9.25,3.31-1.97,5.94-3.97,6.6-6.6,1.32-2.63,1.97-5.28,1.32-7.92s-1.97-4.63-3.97-5.94c-5.94-3.97-10.57-2.63-13.86-.66.66-1.97,1.32-3.31,1.97-5.28,2.63-5.28,3.97-5.94,3.97-5.94l-8.59-1.97s.66,1.32,0,6.6c0,1.97-.66,3.97-.66,5.94-.66-1.32-1.32-2.63-2.63-3.31-.66-.66-1.32-1.32-1.97-1.32s-1.32-.66-1.97-.66c-1.32,0-3.31-.66-5.28-.66-5.94,0-11.88,8.57-5.94,19.8h0Z"
		style="fill:#010101;"/>
	<path
		d="M76.96,168.69c0-6.6-5.94-11.88-13.2-11.88-1.32,0-2.63.66-3.97.66-.66-6.6-5.94-11.88-12.54-11.23-6.6,0-11.88,5.94-11.88,13.2,0,2.63,1.32,5.28,2.63,7.26-3.97,1.97-6.6,6.6-6.6,11.23,0,6.6,5.94,11.88,13.2,11.88,4.63,0,9.25-3.31,10.57-7.26.66,1.32.66,2.63,1.32,3.97,1.32,6.6.66,7.92.66,7.92l8.59-3.31s-1.32-.66-4.63-5.94c-1.32-1.32-1.97-3.31-2.63-4.63,1.97.66,3.97,1.32,5.94,1.32,7.26.02,12.54-5.92,12.54-13.18h0Z"
		style="fill:#010101;"/>
</svg>