<svg xmlns="http://www.w3.org/2000/svg" version="1.1" viewBox="-5.0 -10.0 110.0 135.0" fill="#99a1af">
	<path
		d="m84.234 64.324c0 1.0703-0.86719 1.9375-1.9375 1.9375l-64.594 0.003906c-1.0703 0-1.9375-0.86719-1.9375-1.9375s0.86719-1.9375 1.9375-1.9375h64.59c1.0703 0 1.9375 0.86719 1.9375 1.9375zm-1.9375 19.652-64.594 0.003907c-1.0703 0-1.9375 0.86719-1.9375 1.9375 0 1.0703 0.86719 1.9375 1.9375 1.9375h64.59c1.0703 0 1.9375-0.86719 1.9375-1.9375 0-1.0703-0.86719-1.9375-1.9375-1.9375zm-0.78516-13.836v9.9609h-63.02v-9.9609zm-51.812 4.9805c0-1.0703-0.86719-1.9375-1.9375-1.9375h-2.6211c-1.0703 0-1.9375 0.86719-1.9375 1.9375 0 1.0703 0.86719 1.9375 1.9375 1.9375h2.6211c1.0703 0 1.9375-0.86719 1.9375-1.9375zm12.43 0c0-1.0703-0.86719-1.9375-1.9375-1.9375h-2.6172c-1.0703 0-1.9375 0.86719-1.9375 1.9375 0 1.0703 0.86719 1.9375 1.9375 1.9375h2.6172c1.0703 0 1.9375-0.86719 1.9375-1.9375zm9.8125-1.3086c0-1.0703-0.86719-1.9375-1.9375-1.9375-1.0703 0-1.9375 0.86719-1.9375 1.9375v2.6211c0 1.0703 0.86719 1.9375 1.9375 1.9375 1.0703 0 1.9375-0.86719 1.9375-1.9375zm12.43 1.3086c0-1.0703-0.86719-1.9375-1.9375-1.9375h-2.6211c-1.0703 0-1.9375 0.86719-1.9375 1.9375 0 1.0703 0.86719 1.9375 1.9375 1.9375h2.6211c1.0703 0 1.9375-0.86719 1.9375-1.9375zm12.434 0c0-1.0703-0.86719-1.9375-1.9375-1.9375h-2.6172c-1.0703 0-1.9375 0.86719-1.9375 1.9375 0 1.0703 0.86719 1.9375 1.9375 1.9375h2.6172c1.0703 0 1.9375-0.86719 1.9375-1.9375zm-32.195-53.812h3.4531v6.5664c-1.6758 0.74219-2.8477 2.4219-2.8477 4.3672v26.27h9.5742v-26.27c0-1.9453-1.1719-3.6211-2.8477-4.3672v-6.5664h3.4531c1.0703 0 1.9375-0.86719 1.9375-1.9375 0-1.0703-0.86719-1.9375-1.9375-1.9375h-3.4531v-3.3477c0-1.0703-0.86719-1.9375-1.9375-1.9375-1.0703 0-1.9375 0.86719-1.9375 1.9375v3.3477h-3.4531c-1.0703 0-1.9375 0.86719-1.9375 1.9375 0 1.0703 0.86719 1.9375 1.9375 1.9375zm31.062 26.074c0.42969-0.31641 0.875-0.64062 1.3125-0.97266-1.7734-2.2422-4.5156-3.6484-7.5391-3.6484h-10.773v15.75h8.5859l0.37109-1.4258c1.2305-4.7188 4.8516-7.3672 8.0469-9.7031zm-52.648-0.97656c0.4375 0.33594 0.88672 0.66406 1.3242 0.98047 3.1914 2.3359 6.8047 4.9844 8.0352 9.6914l0.37109 1.4297h8.5859v-15.75h-10.773c-3.0273 0-5.7656 1.4062-7.543 3.6445zm-0.39453 12.105h6.1211l-0.11719-0.44922c-0.82031-3.1406-3.1367-5.0234-6.5742-7.543-2.1016-1.5352-4.4805-3.2773-5.5508-5.5469l-0.007812-0.011718c-0.16016-0.35938-0.29688-0.69531-0.40234-1.0195-0.82812-2.5703-0.59375-5.5859 0.66016-8.4883 1.2109-2.793 3.1719-4.9883 5.3984-6.0312 0.21484-0.10156 0.44531-0.19531 0.66797-0.27344l0.085937-0.023438c0.82031-0.19141 1.6367-0.28906 2.4258-0.28906 3.3477 0 6.043 1.7266 8.6445 3.3984 2.2656 1.457 4.5938 2.9531 7.3555 3.8633v-3.8555c0-0.73438 0.09375-1.4492 0.26562-2.1328-1.6875-0.73047-3.2031-1.7031-4.5898-2.5938-3.4766-2.2305-6.7617-4.3398-11.402-4.3398-1.3242 0-2.668 0.17188-4.1055 0.51953l-0.050781 0.011719-0.20312 0.0625c-0.48438 0.15234-0.98438 0.35156-1.4766 0.58594-3.4414 1.6094-6.4219 4.8477-8.168 8.8867-1.7734 4.1016-2.0859 8.6211-0.85938 12.402 0.19141 0.58984 0.41016 1.1445 0.66797 1.6914 1.6875 3.5938 4.668 5.7734 7.3008 7.6992 1.5117 1.1055 3.0625 2.2422 3.9062 3.4766zm65.762-25.273c-1.75-4.0391-4.7227-7.2773-8.1523-8.8828-0.50391-0.23828-1.0039-0.43359-1.4844-0.58984l-0.20312-0.0625-0.050781-0.011719c-1.4375-0.34766-2.7812-0.51953-4.1055-0.51953-4.6406 0-7.9219 2.1055-11.402 4.3359-1.4453 0.92969-2.9258 1.8828-4.5898 2.6016 0.17188 0.68359 0.26562 1.3945 0.26562 2.1289v3.8555c2.7578-0.90625 5.0898-2.4023 7.3516-3.8594 2.6055-1.6719 5.3008-3.3984 8.6484-3.3984 0.78906 0 1.6055 0.097656 2.4258 0.28906l0.085938 0.023438c0.22656 0.078124 0.45312 0.17187 0.69141 0.28516 2.2031 1.0312 4.1602 3.2227 5.3711 6.0156 1.2578 2.9023 1.4961 5.9141 0.66797 8.4688-0.125 0.37891-0.25781 0.71875-0.40625 1.0391-1.0703 2.2773-3.4453 4.0156-5.5391 5.5508-3.4453 2.5195-5.7656 4.4062-6.5859 7.5508l-0.11719 0.44922h6.1133c0.84766-1.2344 2.3945-2.3711 3.9062-3.4727 2.6289-1.9219 5.6094-4.1055 7.2969-7.6992 0.27344-0.58203 0.49219-1.1367 0.66406-1.6836 1.2305-3.7969 0.91797-8.3203-0.85938-12.414z"/>
</svg>